# xmcd CD database file
#
# Track frame offsets:
#	150
#	17725
#	46450
#	73075
#	88350
#	101475
#	125150
#	147625
#	173037
#	193550
#	206575
#	223637
#	244575
#	262850
#	276190
#	294600
#	304937
#	321562
#
# Disc length: 4438 seconds
#
# Revision: 0
# Processed by: cddbd v1.5.2PL0 Copyright (c) Steve Scherf et al.
# Submitted via: CDex 1.70beta2
#
DISCID=22115412
DTITLE=Various Artist - 18 Tracks from the Film Chicago Blues
DYEAR=1985
DGENRE=Blues
TTITLE0=Buddy Guy - We're Ready
TTITLE1=Buddy Guy - First Time I Met The Blues
TTITLE2=Buddy Guy - Country Girl
TTITLE3=Buddy Guy - Hoodoo Man
TTITLE4=Buddy Guy - We're Ready
TTITLE5=Buddy Guy - In My Younger Days
TTITLE6=Johnny Young - Driving Wheel
TTITLE7=Johnny Young - Walking Groundhog
TTITLE8=Muddy Waters - She's 19 Years Old
TTITLE9=Muddy Waters - Hoochie Coochie Man
TTITLE10=Muddy Waters - I Got My Mojo Working
TTITLE11=Mighty Joe Young - Why You Want To Hurt Me
TTITLE12=Koko Taykor - Wang Dang Doodle
TTITLE13=J.B. Hutto - Speak My Mind
TTITLE14=J.B. Hutto - Come On Back Home
TTITLE15=Johnny Lewis - You're Gonna Miss Me
TTITLE16=Johnny Lewis - Uncle Sam
TTITLE17=Johnny Lewis - Hobo Blues
EXTD=YEAR: 1985
EXTT0=
EXTT1=
EXTT2=
EXTT3=
EXTT4=
EXTT5=
EXTT6=
EXTT7=
EXTT8=
EXTT9=
EXTT10=
EXTT11=
EXTT12=
EXTT13=
EXTT14=
EXTT15=
EXTT16=
EXTT17=
PLAYORDER=
